<?xml version="1.0" encoding="UTF-8"?>
<!-- Generator: Adobe Illustrator 16.0.4, SVG Export Plug-In . SVG Version: 6.00 Build 0)  -->
<!DOCTYPE svg PUBLIC "-//W3C//DTD SVG 1.1//EN" "http://www.w3.org/Graphics/SVG/1.1/DTD/svg11.dtd">
<svg version="1.1" id="Layer_1" xmlns="http://www.w3.org/2000/svg" xmlns:xlink="http://www.w3.org/1999/xlink" x="0px" y="0px" width="63.167px" height="71px" viewBox="0 0 63.167 71" enable-background="new 0 0 63.167 71" xml:space="preserve">
<g display="none">
	<rect x="0.001" y="0.036" display="inline" fill="#D9272E" width="63.11" height="63.112"/>
	<rect x="0.001" y="65.65" display="inline" fill="#1F355E" width="63.11" height="5.258"/>
	<path display="inline" fill="#FFFFFF" d="M28.652,26.56h-1.658l-0.056-0.21c-0.415-1.57-0.76-2.504-1.387-2.942   c-0.632-0.443-1.653-0.669-3.259-0.669c-0.196,0-0.402,0.001-0.618,0.002c-0.156,0-0.315,0.001-0.48,0.001v18.837l2.813,0.267   l0.094,1.812h-9.853l0.086-1.786l0.208-0.044c0.598-0.127,1.652-0.439,1.938-0.744c0.037-0.039,0.074-0.077,0.109-0.113   c0.341-0.346,0.566-0.574,0.566-3.154V22.742c-0.165,0-0.325-0.001-0.48-0.001c-0.216-0.001-0.422-0.002-0.619-0.002   c-1.605,0-2.626,0.226-3.258,0.668c-0.627,0.439-0.972,1.373-1.387,2.943l-0.056,0.21H9.697l0.636-6.685h17.684L28.652,26.56z"/>
	<g display="inline">
		<g>
			<defs>
				<rect id="SVGID_1_" x="0.001" y="0.037" width="63.11" height="70.871"/>
			</defs>
			<clipPath id="SVGID_2_">
				<use xlink:href="#SVGID_1_" overflow="visible"/>
			</clipPath>
			<path clip-path="url(#SVGID_2_)" fill="#FFFFFF" d="M51.908,21.542l-0.248,0.087c-0.66,0.235-1.191,0.443-1.515,0.799     c-0.321,0.355-0.467,0.898-0.467,1.757v19.473h-2.854l-0.08-0.133L36.46,26.759v14.827l2.123,0.266l0.094,1.807h-8.262     l0.127-1.766l0.176-0.057c0.645-0.215,1.758-0.652,2-0.909c0.312-0.333,0.416-0.444,0.416-2.598v-13.03     c0-1.264-0.018-2.002-0.336-2.474c-0.325-0.478-1.043-0.799-2.342-1.259l-0.16-0.057l-0.023-0.174     c-0.07-0.515-0.152-1.134-0.152-1.134l-0.044-0.326h7.104l9.256,15.247V24.108c0-0.79-0.123-1.28-0.414-1.639     c-0.348-0.433-0.988-0.702-1.956-0.826l-0.204-0.027l-0.266-1.741h7.854L51.908,21.542z"/>
		</g>
		<g>
			<defs>
				<rect id="SVGID_3_" x="0.001" y="0.037" width="63.11" height="70.871"/>
			</defs>
			<clipPath id="SVGID_4_">
				<use xlink:href="#SVGID_3_" overflow="visible"/>
			</clipPath>
			<rect y="63.15" clip-path="url(#SVGID_4_)" fill="#FFFFFF" width="63.11" height="2.5"/>
		</g>
	</g>
</g>
<polygon fill="#D9272E" points="0,0 0,63.006 63.007,63.006 63.007,0 "/>
<polygon fill="#002D73" points="63.007,65.561 63.007,70.771 0,70.771 0,65.561 "/>
<rect fill="none" width="63.007" height="70.771"/>
<path fill="#FFFFFF" d="M28.604,26.441h-1.671l-0.098-0.197c-0.393-1.573-0.786-2.458-1.376-2.949  c-0.59-0.492-1.671-0.688-3.244-0.688c-0.197,0-0.393,0-0.59,0s-0.295,0-0.492,0v18.773l2.851,0.295l0.099,1.77h-9.83l0.098-1.77  h0.197c0.59-0.098,1.671-0.393,1.966-0.785l0.098-0.1c0.295-0.393,0.59-0.59,0.59-3.145V22.706c-0.196,0-0.295,0-0.491,0  c-0.197,0-0.394,0-0.59,0c-1.573,0-2.654,0.197-3.244,0.688c-0.59,0.393-0.983,1.376-1.376,2.949l-0.099,0.197H9.731l0.59-6.684  h17.693L28.604,26.441L28.604,26.441z"/>
<path fill="#FFFFFF" d="M51.8,21.428l-0.295,0.098c-0.688,0.197-1.178,0.492-1.473,0.787c-0.295,0.393-0.492,0.884-0.492,1.769  v19.461h-2.852l-0.098-0.098L36.369,26.637V41.48l2.162,0.295l0.1,1.768h-8.258l0.098-1.768l0.197-0.1  c0.688-0.195,1.77-0.688,1.967-0.885c0.295-0.295,0.393-0.49,0.393-2.555V25.261c0-1.278,0-1.966-0.295-2.458  c-0.295-0.491-1.082-0.786-2.359-1.278l-0.196-0.098v-0.197c-0.099-0.491-0.197-1.179-0.197-1.179v-0.295h7.077l9.24,15.235V24.082  c0-0.786-0.098-1.278-0.393-1.671c-0.393-0.393-0.982-0.688-1.967-0.786h-0.195l-0.295-1.77h7.863L51.8,21.428L51.8,21.428z"/>
<polygon fill="#FFFFFF" points="63.007,65.561 0,65.561 0,63.006 63.007,63.006 "/>
<rect fill="none" width="63.007" height="70.771"/>
<path display="none" fill="#002D73" d="M65.365,69.199v0.295h-0.49v1.277H64.58v-1.377h-0.492V69.1h1.277V69.199z M67.037,70.771  l-0.098-0.982c0-0.1,0-0.295,0-0.492l0,0c0,0.098-0.1,0.295-0.1,0.492l-0.295,0.982H66.25l-0.295-0.885  c0-0.098-0.098-0.295-0.098-0.492l0,0c0,0.1,0,0.295,0,0.492l-0.098,0.982h-0.295l0.098-1.572h0.492l0.295,0.787  c0,0.098,0.098,0.195,0.098,0.393l0,0c0-0.1,0.098-0.295,0.098-0.393l0.295-0.787h0.492l0.098,1.572h-0.393V70.771z"/>
</svg>